<svg width="18" height="20" viewBox="0 0 18 20" fill="none" xmlns="http://www.w3.org/2000/svg">
<path fill-rule="evenodd" clip-rule="evenodd" d="M5.6665 0.833313C6.12674 0.833313 6.49984 1.20641 6.49984 1.66665V2.49998H11.4998V1.66665C11.4998 1.20641 11.8729 0.833313 12.3332 0.833313C12.7934 0.833313 13.1665 1.20641 13.1665 1.66665V2.50133C13.5627 2.50406 13.909 2.51224 14.2097 2.53681C14.6781 2.57508 15.1087 2.65722 15.5131 2.86329C16.1403 3.18287 16.6503 3.6928 16.9699 4.32001C17.1759 4.72446 17.2581 5.15504 17.2963 5.62346C17.3332 6.07445 17.3332 6.62808 17.3332 7.29888V14.3677C17.3332 15.0385 17.3332 15.5922 17.2963 16.0432C17.2581 16.5116 17.1759 16.9422 16.9699 17.3466C16.6503 17.9738 16.1403 18.4838 15.5131 18.8033C15.1087 19.0094 14.6781 19.0915 14.2097 19.1298C13.7587 19.1667 13.2051 19.1667 12.5343 19.1666H5.4654C4.7946 19.1667 4.24097 19.1667 3.78998 19.1298C3.32157 19.0915 2.89098 19.0094 2.48654 18.8033C1.85933 18.4838 1.34939 17.9738 1.02982 17.3466C0.823741 16.9422 0.741604 16.5116 0.703333 16.0432C0.666485 15.5922 0.666494 15.0385 0.666504 14.3677V7.2989C0.666494 6.62809 0.666485 6.07445 0.703333 5.62346C0.741604 5.15504 0.823741 4.72446 1.02982 4.32001C1.34939 3.6928 1.85933 3.18287 2.48654 2.86329C2.89098 2.65722 3.32157 2.57508 3.78998 2.53681C4.09066 2.51224 4.43695 2.50406 4.83317 2.50133V1.66665C4.83317 1.20641 5.20627 0.833313 5.6665 0.833313ZM4.83317 4.16811C4.4619 4.17072 4.17036 4.17795 3.9257 4.19794C3.56036 4.22779 3.37352 4.28189 3.24319 4.3483C2.92958 4.50809 2.67462 4.76306 2.51483 5.07666C2.44842 5.20699 2.39431 5.39383 2.36446 5.75918C2.33382 6.13425 2.33317 6.6195 2.33317 7.33331V7.49998H15.6665V7.33331C15.6665 6.6195 15.6659 6.13425 15.6352 5.75918C15.6054 5.39383 15.5513 5.20699 15.4848 5.07666C15.3251 4.76306 15.0701 4.50809 14.7565 4.3483C14.6262 4.28189 14.4393 4.22779 14.074 4.19794C13.8293 4.17795 13.5378 4.17072 13.1665 4.16811V4.99998C13.1665 5.46022 12.7934 5.83331 12.3332 5.83331C11.8729 5.83331 11.4998 5.46022 11.4998 4.99998V4.16665H6.49984V4.99998C6.49984 5.46022 6.12674 5.83331 5.6665 5.83331C5.20627 5.83331 4.83317 5.46022 4.83317 4.99998V4.16811ZM15.6665 9.16665H2.33317V14.3333C2.33317 15.0471 2.33382 15.5324 2.36446 15.9074C2.39431 16.2728 2.44842 16.4596 2.51483 16.59C2.67462 16.9036 2.92958 17.1585 3.24319 17.3183C3.37352 17.3847 3.56036 17.4388 3.9257 17.4687C4.30078 17.4993 4.78602 17.5 5.49984 17.5H12.4998C13.2137 17.5 13.6989 17.4993 14.074 17.4687C14.4393 17.4388 14.6262 17.3847 14.7565 17.3183C15.0701 17.1585 15.3251 16.9036 15.4848 16.59C15.5513 16.4596 15.6054 16.2728 15.6352 15.9074C15.6659 15.5324 15.6665 15.0471 15.6665 14.3333V9.16665Z" fill="#C9CACC"/>
</svg>
