<svg width="14" height="14" viewBox="0 0 14 14" fill="none" xmlns="http://www.w3.org/2000/svg">
<path fill-rule="evenodd" clip-rule="evenodd" d="M7.00395 1.74998C4.10445 1.74998 1.75395 4.10048 1.75395 6.99998C1.75395 9.89948 4.10445 12.25 7.00395 12.25C9.90344 12.25 12.2539 9.89948 12.2539 6.99998C12.2539 4.10048 9.90344 1.74998 7.00395 1.74998ZM0.58728 6.99998C0.58728 3.45615 3.46012 0.583313 7.00395 0.583313C10.5478 0.583313 13.4206 3.45615 13.4206 6.99998C13.4206 10.5438 10.5478 13.4166 7.00395 13.4166C3.46012 13.4166 0.58728 10.5438 0.58728 6.99998ZM7.00395 2.91665C7.32611 2.91665 7.58728 3.17781 7.58728 3.49998V6.63946L9.59816 7.6449C9.88631 7.78897 10.0031 8.13937 9.85903 8.42752C9.71495 8.71568 9.36456 8.83247 9.07641 8.6884L6.74307 7.52173C6.54545 7.42292 6.42061 7.22093 6.42061 6.99998V3.49998C6.42061 3.17781 6.68178 2.91665 7.00395 2.91665Z" fill="#787B80"/>
</svg>
