<svg width="15" height="14" viewBox="0 0 15 14" fill="none" xmlns="http://www.w3.org/2000/svg">
<path fill-rule="evenodd" clip-rule="evenodd" d="M7.16683 1.66665C4.40541 1.66665 2.16683 3.90522 2.16683 6.66665C2.16683 9.42807 4.40541 11.6666 7.16683 11.6666C8.5089 11.6666 9.72747 11.1379 10.6256 10.2773C10.6463 10.2486 10.6696 10.2211 10.6955 10.1952C10.7214 10.1694 10.7488 10.1461 10.7776 10.1253C11.6381 9.22723 12.1668 8.00869 12.1668 6.66665C12.1668 3.90522 9.92825 1.66665 7.16683 1.66665ZM12.0919 10.6488C12.9726 9.56093 13.5002 8.1754 13.5002 6.66665C13.5002 3.16884 10.6646 0.333313 7.16683 0.333313C3.66903 0.333313 0.833496 3.16884 0.833496 6.66665C0.833496 10.1645 3.66903 13 7.16683 13C8.67561 13 10.0612 12.4724 11.1491 11.5916L13.0288 13.4714C13.2891 13.7317 13.7112 13.7317 13.9716 13.4714C14.2319 13.211 14.2319 12.7889 13.9716 12.5286L12.0919 10.6488Z" fill="white"/>
</svg>
